HIERARCHY
ROOT root
{
	OFFSET	0	13.1	24.9
	CHANNELS 6  Xposition Yposition Zposition Xrotation Yrotation Zrotation
	JOINT spine_1
	{
		OFFSET	0	9.99999	0
		CHANNELS 3  Xrotation Yrotation Zrotation
		JOINT spine_2
		{
			OFFSET	0	112	-10
			CHANNELS 3  Xrotation Yrotation Zrotation
			JOINT spine_3
			{
				OFFSET	0	206.5	19.3
				CHANNELS 3  Xrotation Yrotation Zrotation
				JOINT spine_4
				{
					OFFSET	0	110.4	14.6
					CHANNELS 3  Xrotation Yrotation Zrotation
					JOINT neck_1
					{
						OFFSET	0	71.8	-50.3
						CHANNELS 3  Xrotation Yrotation Zrotation
						JOINT neck_2
						{
							OFFSET	0	86.2	-25.8
							CHANNELS 3  Xrotation Yrotation Zrotation
							JOINT head_ee
							{
								OFFSET	0	179.8	-8.7
								CHANNELS 3  Xrotation Yrotation Zrotation
								End Site
								{
									OFFSET	1	0	0
								}
							}
						}
					}
					JOINT left_clavicle
					{
						OFFSET	-43.2	22.4	-70.8
						CHANNELS 3  Xrotation Yrotation Zrotation
						JOINT left_shoulder
						{
							OFFSET	-93.9	-5.79999	48.7
							CHANNELS 3  Xrotation Yrotation Zrotation
							JOINT left_elbow
							{
								OFFSET	-291.4	-30.8	15.2
								CHANNELS 3  Xrotation Yrotation Zrotation
								JOINT left_lowarm_twist
								{
									OFFSET	-110.7	-3.89999	13.6
									CHANNELS 3  Xrotation Yrotation Zrotation
									JOINT left_hand
									{
										OFFSET	-110.7	-3.89999	13.6
										CHANNELS 3  Xrotation Yrotation Zrotation
										JOINT left_ee
										{
											OFFSET	-80.8	-5.10001	12.1
											CHANNELS 3  Xrotation Yrotation Zrotation
											End Site
											{
												OFFSET	1	0	0
											}
										}
									}
								}
							}
						}
					}
					JOINT right_clavicle
					{
						OFFSET	43.2	22.4	-70.8
						CHANNELS 3  Xrotation Yrotation Zrotation
						JOINT right_shoulder
						{
							OFFSET	93.9	-5.79999	48.7
							CHANNELS 3  Xrotation Yrotation Zrotation
							JOINT right_elbow
							{
								OFFSET	291.4	-30.8	15.2
								CHANNELS 3  Xrotation Yrotation Zrotation
								JOINT right_lowarm_twist
								{
									OFFSET	110.7	-3.89999	13.6
									CHANNELS 3  Xrotation Yrotation Zrotation
									JOINT right_hand
									{
										OFFSET	110.7	-3.89999	13.6
										CHANNELS 3  Xrotation Yrotation Zrotation
										JOINT right_ee
										{
											OFFSET	80.8	-5.10001	12.1
											CHANNELS 3  Xrotation Yrotation Zrotation
											End Site
											{
												OFFSET	1	0	0
											}
										}
									}
								}
							}
						}
					}
				}
			}
		}
	}
	JOINT left_hip
	{
		OFFSET	-82.8	-127.5	0.300001
		CHANNELS 3  Xrotation Yrotation Zrotation
		JOINT left_knee
		{
			OFFSET	-28.2	-396.7	2.2
			CHANNELS 3  Xrotation Yrotation Zrotation
			JOINT left_ankle
			{
				OFFSET	-11.7	-411.3	35.4
				CHANNELS 3  Xrotation Yrotation Zrotation
				JOINT left_toes
				{
					OFFSET	0	-60	-88.6
					CHANNELS 3  Xrotation Yrotation Zrotation
					JOINT left_foot_ee
					{
						OFFSET	-22.5	-16.5	-42.2
						CHANNELS 3  Xrotation Yrotation Zrotation
						End Site
						{
							OFFSET	1	0	0
						}
					}
				}
			}
		}
	}
	JOINT right_hip
	{
		OFFSET	82.8	-127.5	0.300001
		CHANNELS 3  Xrotation Yrotation Zrotation
		JOINT right_knee
		{
			OFFSET	28.2	-396.7	2.2
			CHANNELS 3  Xrotation Yrotation Zrotation
			JOINT right_ankle
			{
				OFFSET	11.7	-411.3	35.4
				CHANNELS 3  Xrotation Yrotation Zrotation
				JOINT right_toes
				{
					OFFSET	0	-60	-88.6
					CHANNELS 3  Xrotation Yrotation Zrotation
					JOINT right_foot_ee
					{
						OFFSET	22.5	-16.5	-42.2
						CHANNELS 3  Xrotation Yrotation Zrotation
						End Site
						{
							OFFSET	1	0	0
						}
					}
				}
			}
		}
	}
}
MOTION
Frames: 15
Frame Time: 0.02
1553.51 641.753 -545.179 0.731145 -89.259 2.19338 0.765638 -0.408331 -0.711404 0.765847 -0.362237 -0.735944 0.770664 -0.210176 -0.792875 0.769941 -0.332755 -0.749735 -12.0851 1.47773 -2.80245 -12.0735 4.6034 -2.27615 -0.0 0.0 -0.0 6.25638 7.44041 12.109 17.5669 -30.2768 77.7152 2.00698 -44.8282 0.827866 -16.7516 -0.881331 1.94463 -1.46864 2.7587 -8.60018 -0.0 0.0 -0.0 9.61899 -16.2392 -17.4028 -15.9066 -21.7825 -57.1088 0.634286 17.4432 -0.0973049 -42.8267 3.25667 -4.2562 6.97343 2.5551 -53.1522 0.0 0.0 0.0 -13.4884 15.9646 -4.54152 -20.393 0.29076 3.09946 39.7606 -8.21068 -4.96727 -23.0601 0.0 0.0 -0.0 0.0 -0.0 31.127 11.6789 1.08091 -6.45211 -0.211374 -0.967127 -6.7441 14.9704 -1.09187 -14.7464 0.0 0.0 0.0 0.0 0.0 
1581.49 644.334 -538.872 38.404 -89.3639 39.4488 0.627664 -0.274337 -0.509279 0.627775 -0.241374 -0.525703 0.630078 -0.131703 -0.563275 0.629702 -0.219007 -0.535407 -11.2761 1.11851 -2.9207 -11.2584 4.03076 -2.5214 -0.0 0.0 -0.0 6.01613 9.11786 11.6472 16.4804 -30.5878 78.4711 1.86173 -42.6795 0.727401 -16.8968 -0.891408 1.96026 -1.42367 2.98754 -8.19469 -0.0 0.0 -0.0 9.87671 -17.5815 -17.6438 -15.447 -21.2894 -56.9633 0.633566 17.4246 -0.0970894 -47.7983 3.81603 -4.56283 6.82435 -0.839439 -53.5679 0.0 0.0 0.0 -14.431 15.964 -4.67163 -21.3444 0.277239 3.24482 35.1918 -5.84978 -4.50524 -20.264 0.0 0.0 -0.0 0.0 -0.0 30.8394 11.5478 0.743236 -10.0708 -0.281855 -1.51786 -4.90834 13.6074 -0.783888 -13.6289 0.0 0.0 0.0 0.0 0.0 
1606.18 643.388 -533.526 90.0002 -89.3702 90.0002 0.568141 -0.171883 -0.366664 0.568204 -0.148203 -0.376859 0.569223 -0.0696551 -0.398917 0.569024 -0.131782 -0.38291 -10.9572 0.479373 -3.1872 -10.9314 3.01245 -2.96016 -0.0 0.0 -0.0 5.34962 10.2799 10.4544 14.9387 -30.9297 78.9369 1.78964 -41.5542 0.679049 -16.8439 -0.88773 1.95456 -1.35933 3.09617 -7.71538 -0.0 0.0 -0.0 10.1957 -17.9447 -18.1202 -15.1772 -20.7536 -57.0528 0.640161 17.5948 -0.0990735 -49.1796 3.97595 -4.63931 6.88103 -2.11664 -54.9713 0.0 0.0 0.0 -15.5519 16.1499 -4.80369 -21.8211 0.269557 3.31756 33.4897 -4.00892 -4.3114 -19.2746 0.0 0.0 -0.0 0.0 -0.0 30.0165 11.5638 0.594067 -11.5029 -0.300119 -1.73684 -4.40604 17.0948 -0.722178 -12.8871 0.0 0.0 0.0 0.0 0.0 
1626.8 647.394 -526.054 90.0003 -89.4601 90.0003 0.722007 -0.0565345 -0.33965 0.722071 -0.0348073 -0.342559 0.722301 0.0336509 -0.342674 0.722138 -0.0208901 -0.343688 -9.66458 0.0587988 -3.9606 -9.62102 2.81069 -3.85901 -0.0 0.0 -0.0 5.22607 11.4948 10.2324 12.5564 -30.956 78.258 1.62606 -38.8486 0.573437 -16.7801 -0.883303 1.9477 -1.28585 3.34439 -7.11293 -0.0 0.0 -0.0 10.5219 -18.4288 -18.5836 -14.7672 -20.4982 -57.5919 0.545238 15.1148 -0.0723383 -51.7048 4.27286 -4.76908 6.87523 -3.49207 -55.6844 0.0 0.0 0.0 -15.5376 15.9105 -5.25326 -22.4782 0.257976 3.41773 30.321 -2.52842 -3.96694 -18.1813 0.0 0.0 -0.0 0.0 -0.0 29.4247 11.3517 0.0562158 -13.4392 -0.316098 -2.03348 -1.00673 15.5234 -0.16162 -12.3458 0.0 0.0 0.0 0.0 0.0 
1648.62 648.183 -520.048 90.0003 -89.4352 90.0003 0.726771 0.275705 -0.304708 0.726774 0.294536 -0.286547 0.725266 0.345394 -0.222628 0.725328 0.3059 -0.274382 -10.473 0.372527 -3.85958 -10.4335 3.28407 -3.65614 -0.0 0.0 -0.0 4.44148 12.2426 8.8938 10.9506 -31.7826 78.9033 1.61388 -38.6384 0.565814 -16.7685 -0.882496 1.94644 -1.20448 4.83679 -5.90028 -0.0 0.0 -0.0 10.6034 -18.1182 -18.7745 -13.6183 -19.8287 -57.7154 0.517001 14.3653 -0.0651537 -54.1325 4.56338 -4.88139 6.92253 -5.28045 -57.2503 0.0 0.0 0.0 -15.0679 14.6615 -4.776 -23.9587 0.227677 3.64289 27.7164 0.670352 -3.65713 -16.8683 0.0 0.0 -0.0 0.0 -0.0 27.5547 10.8415 -0.577451 -12.5811 -0.310254 -1.90195 4.86703 16.237 0.772249 -10.9251 0.0 0.0 0.0 0.0 0.0 
1679.78 660.892 -509.886 90.0001 -88.6547 90.0001 0.459491 0.217192 -0.273343 0.459502 0.234145 -0.258969 0.458419 0.281705 -0.20623 0.458444 0.2456 -0.248132 -10.2147 1.65289 -2.58349 -10.2023 4.85153 -2.0992 -0.0 0.0 -0.0 4.3092 15.3368 8.69712 7.79707 -30.2779 77.6632 1.50764 -36.7515 0.500843 -17.7202 -0.949295 2.04835 -1.12063 2.5057 -6.38817 -0.0 0.0 -0.0 10.8395 -18.8004 -19.0467 -12.3652 -18.4539 -58.9801 0.477746 13.3149 -0.0557629 -55.2459 4.69813 -4.92875 6.50884 -6.85903 -53.09 0.0 0.0 0.0 -13.2108 14.6235 -5.47436 -26.7348 0.155217 4.06273 20.3123 4.54353 -2.77207 -17.1234 0.0 0.0 -0.0 0.0 -0.0 23.255 11.0411 -1.24828 -10.6439 -0.289822 -1.60544 8.43238 15.3273 1.31192 -13.4795 0.0 0.0 0.0 0.0 0.0 
1702.46 665.333 -504.305 90.0001 -87.9131 90.0001 0.418598 0.394137 -0.17356 0.418524 0.404382 -0.148128 0.417425 0.426036 -0.0629299 0.417655 0.41075 -0.129426 -11.2759 1.08277 -2.36221 -11.2653 3.59684 -1.99106 -0.0 0.0 -0.0 3.66935 16.644 7.69086 4.94022 -30.0319 76.6434 1.45682 -35.8145 0.470766 -18.1274 -0.978399 2.09163 -1.03838 1.92941 -6.0957 -0.0 0.0 -0.0 10.4734 -17.9147 -18.5911 -9.84521 -17.6354 -60.1165 0.402952 11.2887 -0.0398248 -58.5348 5.10112 -5.05323 6.37823 -10.9035 -53.2488 0.0 0.0 0.0 -13.3283 11.9301 -5.56708 -30.8709 0.00972437 4.68068 14.9707 8.76967 -2.08928 -12.7408 0.0 0.0 -0.0 0.0 -0.0 19.3909 10.3993 -1.40054 -6.11109 -0.202941 -0.915473 8.94245 16.8307 1.40491 -14.1502 0.0 0.0 0.0 0.0 0.0 
1718.43 671.194 -500.644 90.0001 -87.7268 90.0001 0.473387 0.164368 -0.112255 0.473377 0.171178 -0.101568 0.473063 0.188172 -0.0648771 0.4731 0.175565 -0.0937813 -12.1831 2.32101 -1.98166 -12.1891 5.67315 -1.24359 -0.0 0.0 -0.0 3.33717 18.2472 7.20787 2.72834 -29.5291 76.3493 1.3742 -34.2428 0.42334 -18.1739 -0.981742 2.09655 -1.0571 3.86326 -5.36076 -0.0 0.0 -0.0 10.6578 -17.4639 -18.9805 -6.55621 -15.1277 -61.0931 0.404594 11.3335 -0.0401469 -60.3806 5.33012 -5.11287 6.21678 -14.4077 -52.5661 0.0 0.0 0.0 -11.1672 8.7565 -6.20929 -35.5387 -0.207603 5.36369 9.7093 11.8968 -1.38482 -10.226 0.0 0.0 -0.0 0.0 -0.0 16.1262 9.77684 -1.79238 -2.58279 -0.0976936 -0.384301 9.0397 15.0249 1.40001 -15.1195 0.0 0.0 0.0 0.0 0.0 
1741.45 673.533 -494.166 90.0001 -87.1366 90.0001 0.313867 0.151871 -0.0216309 0.313854 0.15294 -0.0119231 0.313817 0.152139 0.0196545 0.313849 0.153334 -0.00461975 -12.2841 2.28696 -2.27727 -12.2876 5.79569 -1.53205 -0.0 0.0 -0.0 2.68642 19.6439 6.26882 1.24084 -29.3165 76.1634 1.29442 -32.6671 0.379352 -18.109 -0.977071 2.08967 -0.903065 3.8314 -4.35517 -0.0 0.0 -0.0 10.6749 -17.0454 -19.0817 -4.47517 -13.7858 -62.4571 0.437766 12.2357 -0.0469219 -61.3738 5.45408 -5.14189 6.15739 -16.2759 -52.396 0.0 0.0 0.0 -9.46661 6.61661 -6.38537 -40.6085 -0.50593 6.08324 2.95672 14.7798 -0.432237 -9.23086 0.0 0.0 -0.0 0.0 -0.0 14.515 9.49074 -2.26193 -2.69949 -0.101697 -0.401764 11.232 15.0398 1.72467 -14.8378 0.0 0.0 0.0 0.0 0.0 
1753.81 675.35 -487.475 90.0 -86.7797 90.0 0.226744 -0.0475212 -0.0306129 0.226743 -0.0454769 -0.0335748 0.22677 -0.037572 -0.0422346 0.226771 -0.0437706 -0.0357708 -12.0727 2.84538 -1.90755 -12.0852 6.62176 -1.02939 -0.0 0.0 -0.0 2.56742 19.1925 6.07318 -0.0421529 -27.1623 75.3196 1.07778 -28.0971 0.269699 -17.6233 -0.942417 2.03803 -0.941001 4.69254 -4.22599 -0.0 0.0 -0.0 10.7273 -16.7808 -19.217 -3.43823 -11.3403 -63.9294 0.438803 12.2638 -0.0471419 -63.6714 5.74256 -5.20073 6.07239 -18.3384 -51.9179 0.0 0.0 0.0 -8.25814 1.91045 -5.88683 -43.0228 -0.67019 6.41618 -6.82655 18.8597 1.02925 -8.88121 0.0 0.0 -0.0 0.0 -0.0 12.3476 9.45154 -2.82419 -0.430546 -0.0174887 -0.0637572 13.1777 15.2828 2.0104 -15.3552 0.0 0.0 0.0 0.0 0.0 
1768.08 681.133 -483.508 90.0 -86.5474 90.0 0.137569 -0.0186203 0.0110918 0.137569 -0.0192884 0.00988445 0.137565 -0.0209215 0.00565996 0.137566 -0.019765 0.00889308 -12.581 4.1288 -0.683386 -12.62 8.27647 0.548497 -0.0 0.0 -0.0 2.68114 19.2366 6.24532 -0.766592 -25.6317 74.9007 0.825704 -22.2459 0.162343 -17.2563 -0.916526 1.99882 -0.888098 5.85738 -3.36513 -0.0 0.0 -0.0 10.647 -15.5299 -19.2845 -1.57551 -9.21093 -64.7007 0.446486 12.4719 -0.0487875 -65.244 5.94119 -5.23428 6.00464 -19.7975 -51.4541 0.0 0.0 0.0 -8.00784 -0.722849 -4.81358 -42.3154 -0.620603 6.31933 -14.4926 21.5052 2.2266 -9.72516 0.0 0.0 -0.0 0.0 -0.0 10.794 8.50984 -3.55063 -0.313352 -0.0127758 -0.0463898 15.2602 14.2071 2.28879 -15.9753 0.0 0.0 0.0 0.0 0.0 
1786.03 687.006 -478.97 90.0 -86.0823 90.0 -0.022185 -0.0860059 0.0613285 -0.0221874 -0.0897341 0.0557315 -0.0222784 -0.099457 0.0355879 -0.0222682 -0.0925884 0.0508487 -12.674 4.41022 -1.99178 -12.7183 9.63941 -0.613434 -0.0 0.0 -0.0 2.4753 19.0901 5.93062 -2.2086 -24.439 74.5866 0.632709 -17.4024 0.0968328 -16.7135 -0.878688 1.94052 -0.882336 7.42503 -2.63896 -0.0 0.0 -0.0 10.6851 -14.8703 -19.4566 1.58861 -7.11358 -65.7349 0.522582 14.5138 -0.0665455 -67.154 6.18347 -5.26765 5.95433 -22.2827 -51.2505 0.0 0.0 0.0 -5.23645 -3.45596 -5.42789 -45.2483 -0.833958 6.71681 -23.7712 24.1314 3.71031 -11.5779 0.0 0.0 -0.0 0.0 -0.0 8.97206 9.17496 -3.69657 -0.754663 -0.0303379 -0.111838 17.1044 12.8097 2.51968 -16.2572 0.0 0.0 0.0 0.0 0.0 
1801.66 691.205 -477.025 90.0 -85.4586 90.0 -0.236567 -0.0356081 0.0720903 -0.236565 -0.0401233 0.0696784 -0.236614 -0.0541179 0.059466 -0.236617 -0.0440471 0.0672666 -12.8229 5.15925 0.121829 -12.8817 9.73189 1.64256 -0.0 0.0 -0.0 2.63706 18.8899 6.16533 -3.30464 -24.582 74.0686 0.434981 -12.1602 0.0463335 -16.3001 -0.850246 1.89589 -0.651829 9.35012 -0.313637 -0.0 0.0 -0.0 10.4852 -14.3537 -19.1805 3.284 -5.79689 -66.3249 0.585099 16.1639 -0.0830845 -68.409 6.34315 -5.28514 5.96349 -23.458 -51.4449 0.0 0.0 0.0 -2.33816 -4.94403 -5.30356 -48.423 -1.08762 7.13437 -25.4054 26.4988 4.01477 -14.7243 0.0 0.0 -0.0 0.0 -0.0 7.14126 9.24065 -3.6306 -1.11825 -0.044427 -0.165858 17.2243 13.1234 2.54101 -16.5623 0.0 0.0 0.0 0.0 0.0 
1821.97 694.056 -481.82 90.0 -84.133 90.0 -0.34732 0.0710815 0.196595 -0.3473 0.0584276 0.20072 -0.347078 0.0136727 0.208603 -0.347136 0.0464461 0.203826 -13.4809 5.15017 0.151968 -13.5464 9.71641 1.72492 -0.0 0.0 -0.0 2.92585 19.8366 6.63099 -5.25346 -22.7843 73.3157 0.321152 -9.03959 0.0253869 -16.5621 -0.868236 1.9242 -0.927112 9.98611 -1.80371 -0.0 0.0 -0.0 10.2354 -13.5713 -18.8466 4.6858 -4.71477 -66.5415 0.591016 16.3187 -0.0847396 -69.2667 6.45247 -5.29507 5.92824 -23.0521 -51.0546 0.0 0.0 0.0 -0.791282 -6.66497 -3.42708 -51.0847 -1.31795 7.47337 -25.1536 29.3637 4.04534 -18.2012 0.0 0.0 -0.0 0.0 -0.0 5.44209 9.62538 -3.06265 -6.63267 -0.215715 -0.994496 24.1545 12.7203 3.42696 -14.2763 0.0 0.0 0.0 0.0 0.0 
1830.08 700.079 -486.998 90.0 -83.7702 90.0 -0.40038 0.0612552 0.280156 -0.400338 0.043304 0.283486 -0.400093 -0.0192438 0.286128 -0.400206 0.0261862 0.285577 -13.8738 4.4531 -0.0942727 -13.9276 8.5495 1.30447 -0.0 0.0 -0.0 3.52003 20.1152 7.51772 -7.13748 -21.4851 71.8068 0.207573 -5.87098 0.0106441 -16.7984 -0.884571 1.94967 -0.995806 11.3552 -1.6396 -0.0 0.0 -0.0 10.0285 -11.427 -18.7469 6.16754 -3.10321 -66.3428 0.710083 19.3796 -0.121248 -69.6951 6.50711 -5.29942 6.09173 -23.3511 -52.7725 0.0 0.0 0.0 1.63952 -8.43456 -0.971976 -50.7928 -1.29191 7.43671 -24.8469 29.7072 4.0052 -25.472 0.0 0.0 -0.0 0.0 -0.0 4.42404 9.94422 -2.18087 -6.52536 -0.213146 -0.978229 20.4396 6.2612 2.86202 -15.7204 0.0 0.0 0.0 0.0 0.0 
